<svg width="67" height="22" viewBox="0 0 67 22" fill="none" xmlns="http://www.w3.org/2000/svg">
<mask id="path-1-outside-1_14_33" maskUnits="userSpaceOnUse" x="0" y="0" width="67" height="22" fill="black">
<rect fill="white" width="67" height="22"/>
<path d="M14.7389 6.41974C14.7389 6.45901 14.6773 6.48846 14.5541 6.5081C14.4514 6.52774 14.3898 6.5081 14.3693 6.44919C14.0407 5.31026 13.4862 4.46588 12.7058 3.91605C11.9254 3.36623 10.8986 3.09131 9.62534 3.09131H8.70119C8.0851 3.09131 7.63329 3.21895 7.34578 3.47423C7.05827 3.7295 6.91452 4.12224 6.91452 4.65243V11.0147H9.13246C10.3236 11.0147 11.2272 10.8184 11.8433 10.4256C12.4799 10.0133 12.7982 9.45361 12.7982 8.74669C12.7982 8.70741 12.8598 8.68778 12.9831 8.68778C13.1063 8.68778 13.1679 8.70741 13.1679 8.74669L13.1371 11.4271C13.1371 12.0555 13.1473 12.5268 13.1679 12.8409L13.1987 14.4021C13.1987 14.461 13.1371 14.4904 13.0139 14.4904C12.8906 14.4904 12.829 14.461 12.829 14.4021C12.829 13.6166 12.5004 12.998 11.8433 12.5464C11.2066 12.0751 10.2928 11.8395 9.10166 11.8395H6.91452V18.1429C6.91452 18.7516 6.99666 19.2032 7.16095 19.4978C7.32525 19.7923 7.63329 19.9985 8.0851 20.1163C8.5369 20.2342 9.24541 20.2931 10.2106 20.2931C10.2517 20.2931 10.2722 20.352 10.2722 20.4698C10.2722 20.5876 10.2517 20.6465 10.2106 20.6465C9.36863 20.6465 8.71146 20.6367 8.23912 20.6171L5.09703 20.5876L2.78668 20.6171C2.37595 20.6367 1.81119 20.6465 1.09241 20.6465C1.0308 20.6465 1 20.5876 1 20.4698C1 20.352 1.0308 20.2931 1.09241 20.2931C1.81119 20.2931 2.33487 20.244 2.66346 20.1458C2.99204 20.0476 3.20768 19.8611 3.31036 19.5862C3.43358 19.2916 3.49519 18.8498 3.49519 18.2607V4.62298C3.49519 4.03387 3.44385 3.60187 3.34116 3.32695C3.23848 3.05204 3.03312 2.86549 2.72507 2.7673C2.41702 2.64948 1.94468 2.59057 1.30805 2.59057C1.24644 2.59057 1.21563 2.53166 1.21563 2.41384C1.21563 2.29602 1.24644 2.23711 1.30805 2.23711H14.3693C14.5746 2.23711 14.6773 2.32548 14.6773 2.50221L14.7389 6.41974Z"/>
<path d="M43.5652 9.45361C44.0786 9.45361 44.3353 9.75798 44.3353 10.3667C44.3353 10.8576 44.1916 11.3387 43.9041 11.81C43.6371 12.2617 43.2674 12.6348 42.7951 12.9293C42.3228 13.2239 41.8196 13.3711 41.2857 13.3711C40.7106 13.3711 39.9713 13.1649 39.0677 12.7526C38.6981 15.4428 37.7534 17.4948 36.2337 18.9087C34.7345 20.3029 32.8657 21 30.6272 21C29.2307 21 27.978 20.6858 26.869 20.0574C25.7806 19.4094 24.9283 18.5552 24.3122 17.4948C23.6961 16.4345 23.3881 15.2857 23.3881 14.0486C23.3881 13.5184 23.4497 12.9882 23.5729 12.458C23.8194 11.4173 24.2917 10.4747 24.9899 9.63034C25.6882 8.78596 26.5096 8.12813 27.4543 7.65685C28.399 7.18557 29.354 6.94993 30.3192 6.94993C31.346 6.94993 32.188 7.22484 32.8452 7.77467C34.0773 6.45901 34.6934 5.31026 34.6934 4.32842C34.6934 3.95533 34.6318 3.6706 34.5086 3.47423C34.3854 3.25822 34.2108 3.06186 33.9849 2.88513C33.8206 2.72803 33.6974 2.59058 33.6153 2.47275C33.5331 2.35493 33.4921 2.18802 33.4921 1.97202C33.4921 1.67747 33.5845 1.44183 33.7693 1.2651C33.9541 1.08837 34.1903 1 34.4778 1C34.9296 1 35.2993 1.19637 35.5868 1.5891C35.8743 1.98184 36.0181 2.50221 36.0181 3.15022C36.0181 4.24988 35.5868 5.36917 34.7243 6.5081C33.8617 7.64703 32.8246 8.71723 31.613 9.7187C30.4013 10.7005 28.8816 11.8493 27.0539 13.1649L25.2672 14.4904C25.4725 15.5508 25.8935 16.4934 26.5302 17.3181C27.1668 18.1232 27.9267 18.7516 28.8097 19.2032C29.7133 19.6352 30.658 19.8513 31.6438 19.8513C33.5126 19.8513 35.0631 19.2229 36.2953 17.9661C37.548 16.7094 38.3079 14.9028 38.5748 12.5464L37.9896 12.2518C37.127 11.8198 36.439 11.5056 35.9256 11.3093C35.4122 11.0933 34.9193 10.9853 34.447 10.9853C34.1595 10.9853 33.9233 11.0442 33.7385 11.162C33.5742 11.2798 33.4921 11.4271 33.4921 11.6038C33.4921 11.8395 33.5742 12.1144 33.7385 12.4286C33.9028 12.782 33.9849 13.0373 33.9849 13.1944C33.9849 13.3711 33.9233 13.538 33.8001 13.6951C33.6769 13.8326 33.4921 13.9013 33.2456 13.9013C32.9992 13.9013 32.7938 13.8326 32.6295 13.6951C32.4858 13.538 32.4139 13.2926 32.4139 12.9588C32.4139 12.4482 32.5782 11.9573 32.9068 11.486C33.2559 11.0147 33.6974 10.6416 34.2314 10.3667C34.7859 10.0722 35.3506 9.92489 35.9256 9.92489C36.439 9.92489 36.9627 10.0329 37.4967 10.2489C38.0512 10.4453 38.7289 10.7398 39.5298 11.1325C40.187 11.4664 40.7517 11.7315 41.2241 11.9278C41.6964 12.1046 42.1277 12.1929 42.5179 12.1929C42.7848 12.1929 43.0005 12.1438 43.1648 12.0457C43.3496 11.9278 43.442 11.7904 43.442 11.6333C43.442 11.4566 43.3393 11.2307 43.1339 10.9558C43.0107 10.7987 42.9183 10.6613 42.8567 10.5434C42.7951 10.4256 42.7643 10.2882 42.7643 10.1311C42.7643 9.67943 43.0313 9.45361 43.5652 9.45361ZM25.2672 11.5155C25.1645 12.1438 25.1132 12.674 25.1132 13.106C25.1132 13.322 25.1337 13.6264 25.1748 14.0191C25.7293 13.5871 26.3043 13.1551 26.8998 12.7231C28.7687 11.3486 30.2268 10.2096 31.2741 9.30633C30.7607 8.26559 29.9187 7.74521 28.7481 7.74521C27.9472 7.74521 27.2284 8.10849 26.5918 8.83505C25.9757 9.54197 25.5342 10.4354 25.2672 11.5155Z"/>
<path d="M60.3627 10.3078C62.0878 10.5042 63.4535 11.054 64.4598 11.9573C65.4866 12.8606 66 13.9799 66 15.3152C66 16.3363 65.6919 17.2592 65.0759 18.0839C64.4598 18.9087 63.6075 19.5665 62.5191 20.0574C61.4306 20.5287 60.219 20.7644 58.8841 20.7644C58.3091 20.7644 57.6519 20.7349 56.9126 20.676C56.6251 20.6564 56.2657 20.6367 55.8344 20.6171C55.4237 20.5974 54.9616 20.5876 54.4482 20.5876L52.1995 20.6171C51.7887 20.6367 51.2342 20.6465 50.536 20.6465C50.4744 20.6465 50.4436 20.5876 50.4436 20.4698C50.4436 20.352 50.4744 20.2931 50.536 20.2931C51.1316 20.2931 51.5834 20.244 51.8914 20.1458C52.1995 20.028 52.4151 19.8316 52.5383 19.5567C52.6821 19.2622 52.7539 18.8301 52.7539 18.2607V4.62298C52.7539 3.79823 52.6102 3.25822 52.3227 3.00295C52.0352 2.72803 51.4499 2.59057 50.5668 2.59057C50.5257 2.59057 50.5052 2.53166 50.5052 2.41384C50.5052 2.29602 50.5257 2.23711 50.5668 2.23711L52.1995 2.26657C53.1441 2.30584 53.8937 2.32548 54.4482 2.32548C55.0232 2.32548 55.6188 2.29602 56.2349 2.23711C56.4403 2.21748 56.7483 2.19784 57.159 2.1782C57.5698 2.15857 57.9292 2.14875 58.2372 2.14875C60.106 2.14875 61.5538 2.47275 62.5807 3.12077C63.6075 3.76878 64.1209 4.71134 64.1209 5.94845C64.1209 6.89102 63.7923 7.74521 63.1352 8.51105C62.4985 9.27688 61.5744 9.8758 60.3627 10.3078ZM57.7751 2.79676C57.1796 2.79676 56.7688 2.93422 56.5429 3.20913C56.317 3.46441 56.2041 3.95533 56.2041 4.68188V10.2784L57.4363 10.3078C58.5042 10.3078 59.3256 9.92489 59.9007 9.15906C60.4757 8.39323 60.7632 7.41139 60.7632 6.21355C60.7632 5.09426 60.5065 4.24988 59.9931 3.68041C59.4797 3.09131 58.7403 2.79676 57.7751 2.79676ZM58.3604 20.028C61.0507 20.028 62.3958 18.6927 62.3958 16.0221C62.3958 14.5101 62.0159 13.3122 61.2561 12.4286C60.4962 11.5449 59.3462 11.1031 57.8059 11.1031C57.2104 11.1031 56.6764 11.1227 56.2041 11.162V18.2607C56.2041 18.9087 56.3376 19.3702 56.6045 19.6451C56.8715 19.9003 57.4568 20.028 58.3604 20.028Z"/>
</mask>
<path d="M14.7389 6.41974C14.7389 6.45901 14.6773 6.48846 14.5541 6.5081C14.4514 6.52774 14.3898 6.5081 14.3693 6.44919C14.0407 5.31026 13.4862 4.46588 12.7058 3.91605C11.9254 3.36623 10.8986 3.09131 9.62534 3.09131H8.70119C8.0851 3.09131 7.63329 3.21895 7.34578 3.47423C7.05827 3.7295 6.91452 4.12224 6.91452 4.65243V11.0147H9.13246C10.3236 11.0147 11.2272 10.8184 11.8433 10.4256C12.4799 10.0133 12.7982 9.45361 12.7982 8.74669C12.7982 8.70741 12.8598 8.68778 12.9831 8.68778C13.1063 8.68778 13.1679 8.70741 13.1679 8.74669L13.1371 11.4271C13.1371 12.0555 13.1473 12.5268 13.1679 12.8409L13.1987 14.4021C13.1987 14.461 13.1371 14.4904 13.0139 14.4904C12.8906 14.4904 12.829 14.461 12.829 14.4021C12.829 13.6166 12.5004 12.998 11.8433 12.5464C11.2066 12.0751 10.2928 11.8395 9.10166 11.8395H6.91452V18.1429C6.91452 18.7516 6.99666 19.2032 7.16095 19.4978C7.32525 19.7923 7.63329 19.9985 8.0851 20.1163C8.5369 20.2342 9.24541 20.2931 10.2106 20.2931C10.2517 20.2931 10.2722 20.352 10.2722 20.4698C10.2722 20.5876 10.2517 20.6465 10.2106 20.6465C9.36863 20.6465 8.71146 20.6367 8.23912 20.6171L5.09703 20.5876L2.78668 20.6171C2.37595 20.6367 1.81119 20.6465 1.09241 20.6465C1.0308 20.6465 1 20.5876 1 20.4698C1 20.352 1.0308 20.2931 1.09241 20.2931C1.81119 20.2931 2.33487 20.244 2.66346 20.1458C2.99204 20.0476 3.20768 19.8611 3.31036 19.5862C3.43358 19.2916 3.49519 18.8498 3.49519 18.2607V4.62298C3.49519 4.03387 3.44385 3.60187 3.34116 3.32695C3.23848 3.05204 3.03312 2.86549 2.72507 2.7673C2.41702 2.64948 1.94468 2.59057 1.30805 2.59057C1.24644 2.59057 1.21563 2.53166 1.21563 2.41384C1.21563 2.29602 1.24644 2.23711 1.30805 2.23711H14.3693C14.5746 2.23711 14.6773 2.32548 14.6773 2.50221L14.7389 6.41974Z" fill="white"/>
<path d="M43.5652 9.45361C44.0786 9.45361 44.3353 9.75798 44.3353 10.3667C44.3353 10.8576 44.1916 11.3387 43.9041 11.81C43.6371 12.2617 43.2674 12.6348 42.7951 12.9293C42.3228 13.2239 41.8196 13.3711 41.2857 13.3711C40.7106 13.3711 39.9713 13.1649 39.0677 12.7526C38.6981 15.4428 37.7534 17.4948 36.2337 18.9087C34.7345 20.3029 32.8657 21 30.6272 21C29.2307 21 27.978 20.6858 26.869 20.0574C25.7806 19.4094 24.9283 18.5552 24.3122 17.4948C23.6961 16.4345 23.3881 15.2857 23.3881 14.0486C23.3881 13.5184 23.4497 12.9882 23.5729 12.458C23.8194 11.4173 24.2917 10.4747 24.9899 9.63034C25.6882 8.78596 26.5096 8.12813 27.4543 7.65685C28.399 7.18557 29.354 6.94993 30.3192 6.94993C31.346 6.94993 32.188 7.22484 32.8452 7.77467C34.0773 6.45901 34.6934 5.31026 34.6934 4.32842C34.6934 3.95533 34.6318 3.6706 34.5086 3.47423C34.3854 3.25822 34.2108 3.06186 33.9849 2.88513C33.8206 2.72803 33.6974 2.59058 33.6153 2.47275C33.5331 2.35493 33.4921 2.18802 33.4921 1.97202C33.4921 1.67747 33.5845 1.44183 33.7693 1.2651C33.9541 1.08837 34.1903 1 34.4778 1C34.9296 1 35.2993 1.19637 35.5868 1.5891C35.8743 1.98184 36.0181 2.50221 36.0181 3.15022C36.0181 4.24988 35.5868 5.36917 34.7243 6.5081C33.8617 7.64703 32.8246 8.71723 31.613 9.7187C30.4013 10.7005 28.8816 11.8493 27.0539 13.1649L25.2672 14.4904C25.4725 15.5508 25.8935 16.4934 26.5302 17.3181C27.1668 18.1232 27.9267 18.7516 28.8097 19.2032C29.7133 19.6352 30.658 19.8513 31.6438 19.8513C33.5126 19.8513 35.0631 19.2229 36.2953 17.9661C37.548 16.7094 38.3079 14.9028 38.5748 12.5464L37.9896 12.2518C37.127 11.8198 36.439 11.5056 35.9256 11.3093C35.4122 11.0933 34.9193 10.9853 34.447 10.9853C34.1595 10.9853 33.9233 11.0442 33.7385 11.162C33.5742 11.2798 33.4921 11.4271 33.4921 11.6038C33.4921 11.8395 33.5742 12.1144 33.7385 12.4286C33.9028 12.782 33.9849 13.0373 33.9849 13.1944C33.9849 13.3711 33.9233 13.538 33.8001 13.6951C33.6769 13.8326 33.4921 13.9013 33.2456 13.9013C32.9992 13.9013 32.7938 13.8326 32.6295 13.6951C32.4858 13.538 32.4139 13.2926 32.4139 12.9588C32.4139 12.4482 32.5782 11.9573 32.9068 11.486C33.2559 11.0147 33.6974 10.6416 34.2314 10.3667C34.7859 10.0722 35.3506 9.92489 35.9256 9.92489C36.439 9.92489 36.9627 10.0329 37.4967 10.2489C38.0512 10.4453 38.7289 10.7398 39.5298 11.1325C40.187 11.4664 40.7517 11.7315 41.2241 11.9278C41.6964 12.1046 42.1277 12.1929 42.5179 12.1929C42.7848 12.1929 43.0005 12.1438 43.1648 12.0457C43.3496 11.9278 43.442 11.7904 43.442 11.6333C43.442 11.4566 43.3393 11.2307 43.1339 10.9558C43.0107 10.7987 42.9183 10.6613 42.8567 10.5434C42.7951 10.4256 42.7643 10.2882 42.7643 10.1311C42.7643 9.67943 43.0313 9.45361 43.5652 9.45361ZM25.2672 11.5155C25.1645 12.1438 25.1132 12.674 25.1132 13.106C25.1132 13.322 25.1337 13.6264 25.1748 14.0191C25.7293 13.5871 26.3043 13.1551 26.8998 12.7231C28.7687 11.3486 30.2268 10.2096 31.2741 9.30633C30.7607 8.26559 29.9187 7.74521 28.7481 7.74521C27.9472 7.74521 27.2284 8.10849 26.5918 8.83505C25.9757 9.54197 25.5342 10.4354 25.2672 11.5155Z" fill="white"/>
<path d="M60.3627 10.3078C62.0878 10.5042 63.4535 11.054 64.4598 11.9573C65.4866 12.8606 66 13.9799 66 15.3152C66 16.3363 65.6919 17.2592 65.0759 18.0839C64.4598 18.9087 63.6075 19.5665 62.5191 20.0574C61.4306 20.5287 60.219 20.7644 58.8841 20.7644C58.3091 20.7644 57.6519 20.7349 56.9126 20.676C56.6251 20.6564 56.2657 20.6367 55.8344 20.6171C55.4237 20.5974 54.9616 20.5876 54.4482 20.5876L52.1995 20.6171C51.7887 20.6367 51.2342 20.6465 50.536 20.6465C50.4744 20.6465 50.4436 20.5876 50.4436 20.4698C50.4436 20.352 50.4744 20.2931 50.536 20.2931C51.1316 20.2931 51.5834 20.244 51.8914 20.1458C52.1995 20.028 52.4151 19.8316 52.5383 19.5567C52.6821 19.2622 52.7539 18.8301 52.7539 18.2607V4.62298C52.7539 3.79823 52.6102 3.25822 52.3227 3.00295C52.0352 2.72803 51.4499 2.59057 50.5668 2.59057C50.5257 2.59057 50.5052 2.53166 50.5052 2.41384C50.5052 2.29602 50.5257 2.23711 50.5668 2.23711L52.1995 2.26657C53.1441 2.30584 53.8937 2.32548 54.4482 2.32548C55.0232 2.32548 55.6188 2.29602 56.2349 2.23711C56.4403 2.21748 56.7483 2.19784 57.159 2.1782C57.5698 2.15857 57.9292 2.14875 58.2372 2.14875C60.106 2.14875 61.5538 2.47275 62.5807 3.12077C63.6075 3.76878 64.1209 4.71134 64.1209 5.94845C64.1209 6.89102 63.7923 7.74521 63.1352 8.51105C62.4985 9.27688 61.5744 9.8758 60.3627 10.3078ZM57.7751 2.79676C57.1796 2.79676 56.7688 2.93422 56.5429 3.20913C56.317 3.46441 56.2041 3.95533 56.2041 4.68188V10.2784L57.4363 10.3078C58.5042 10.3078 59.3256 9.92489 59.9007 9.15906C60.4757 8.39323 60.7632 7.41139 60.7632 6.21355C60.7632 5.09426 60.5065 4.24988 59.9931 3.68041C59.4797 3.09131 58.7403 2.79676 57.7751 2.79676ZM58.3604 20.028C61.0507 20.028 62.3958 18.6927 62.3958 16.0221C62.3958 14.5101 62.0159 13.3122 61.2561 12.4286C60.4962 11.5449 59.3462 11.1031 57.8059 11.1031C57.2104 11.1031 56.6764 11.1227 56.2041 11.162V18.2607C56.2041 18.9087 56.3376 19.3702 56.6045 19.6451C56.8715 19.9003 57.4568 20.028 58.3604 20.028Z" fill="white"/>
<path d="M14.7389 6.41974C14.7389 6.45901 14.6773 6.48846 14.5541 6.5081C14.4514 6.52774 14.3898 6.5081 14.3693 6.44919C14.0407 5.31026 13.4862 4.46588 12.7058 3.91605C11.9254 3.36623 10.8986 3.09131 9.62534 3.09131H8.70119C8.0851 3.09131 7.63329 3.21895 7.34578 3.47423C7.05827 3.7295 6.91452 4.12224 6.91452 4.65243V11.0147H9.13246C10.3236 11.0147 11.2272 10.8184 11.8433 10.4256C12.4799 10.0133 12.7982 9.45361 12.7982 8.74669C12.7982 8.70741 12.8598 8.68778 12.9831 8.68778C13.1063 8.68778 13.1679 8.70741 13.1679 8.74669L13.1371 11.4271C13.1371 12.0555 13.1473 12.5268 13.1679 12.8409L13.1987 14.4021C13.1987 14.461 13.1371 14.4904 13.0139 14.4904C12.8906 14.4904 12.829 14.461 12.829 14.4021C12.829 13.6166 12.5004 12.998 11.8433 12.5464C11.2066 12.0751 10.2928 11.8395 9.10166 11.8395H6.91452V18.1429C6.91452 18.7516 6.99666 19.2032 7.16095 19.4978C7.32525 19.7923 7.63329 19.9985 8.0851 20.1163C8.5369 20.2342 9.24541 20.2931 10.2106 20.2931C10.2517 20.2931 10.2722 20.352 10.2722 20.4698C10.2722 20.5876 10.2517 20.6465 10.2106 20.6465C9.36863 20.6465 8.71146 20.6367 8.23912 20.6171L5.09703 20.5876L2.78668 20.6171C2.37595 20.6367 1.81119 20.6465 1.09241 20.6465C1.0308 20.6465 1 20.5876 1 20.4698C1 20.352 1.0308 20.2931 1.09241 20.2931C1.81119 20.2931 2.33487 20.244 2.66346 20.1458C2.99204 20.0476 3.20768 19.8611 3.31036 19.5862C3.43358 19.2916 3.49519 18.8498 3.49519 18.2607V4.62298C3.49519 4.03387 3.44385 3.60187 3.34116 3.32695C3.23848 3.05204 3.03312 2.86549 2.72507 2.7673C2.41702 2.64948 1.94468 2.59057 1.30805 2.59057C1.24644 2.59057 1.21563 2.53166 1.21563 2.41384C1.21563 2.29602 1.24644 2.23711 1.30805 2.23711H14.3693C14.5746 2.23711 14.6773 2.32548 14.6773 2.50221L14.7389 6.41974Z" stroke="black" stroke-width="2" mask="url(#path-1-outside-1_14_33)"/>
<path d="M43.5652 9.45361C44.0786 9.45361 44.3353 9.75798 44.3353 10.3667C44.3353 10.8576 44.1916 11.3387 43.9041 11.81C43.6371 12.2617 43.2674 12.6348 42.7951 12.9293C42.3228 13.2239 41.8196 13.3711 41.2857 13.3711C40.7106 13.3711 39.9713 13.1649 39.0677 12.7526C38.6981 15.4428 37.7534 17.4948 36.2337 18.9087C34.7345 20.3029 32.8657 21 30.6272 21C29.2307 21 27.978 20.6858 26.869 20.0574C25.7806 19.4094 24.9283 18.5552 24.3122 17.4948C23.6961 16.4345 23.3881 15.2857 23.3881 14.0486C23.3881 13.5184 23.4497 12.9882 23.5729 12.458C23.8194 11.4173 24.2917 10.4747 24.9899 9.63034C25.6882 8.78596 26.5096 8.12813 27.4543 7.65685C28.399 7.18557 29.354 6.94993 30.3192 6.94993C31.346 6.94993 32.188 7.22484 32.8452 7.77467C34.0773 6.45901 34.6934 5.31026 34.6934 4.32842C34.6934 3.95533 34.6318 3.6706 34.5086 3.47423C34.3854 3.25822 34.2108 3.06186 33.9849 2.88513C33.8206 2.72803 33.6974 2.59058 33.6153 2.47275C33.5331 2.35493 33.4921 2.18802 33.4921 1.97202C33.4921 1.67747 33.5845 1.44183 33.7693 1.2651C33.9541 1.08837 34.1903 1 34.4778 1C34.9296 1 35.2993 1.19637 35.5868 1.5891C35.8743 1.98184 36.0181 2.50221 36.0181 3.15022C36.0181 4.24988 35.5868 5.36917 34.7243 6.5081C33.8617 7.64703 32.8246 8.71723 31.613 9.7187C30.4013 10.7005 28.8816 11.8493 27.0539 13.1649L25.2672 14.4904C25.4725 15.5508 25.8935 16.4934 26.5302 17.3181C27.1668 18.1232 27.9267 18.7516 28.8097 19.2032C29.7133 19.6352 30.658 19.8513 31.6438 19.8513C33.5126 19.8513 35.0631 19.2229 36.2953 17.9661C37.548 16.7094 38.3079 14.9028 38.5748 12.5464L37.9896 12.2518C37.127 11.8198 36.439 11.5056 35.9256 11.3093C35.4122 11.0933 34.9193 10.9853 34.447 10.9853C34.1595 10.9853 33.9233 11.0442 33.7385 11.162C33.5742 11.2798 33.4921 11.4271 33.4921 11.6038C33.4921 11.8395 33.5742 12.1144 33.7385 12.4286C33.9028 12.782 33.9849 13.0373 33.9849 13.1944C33.9849 13.3711 33.9233 13.538 33.8001 13.6951C33.6769 13.8326 33.4921 13.9013 33.2456 13.9013C32.9992 13.9013 32.7938 13.8326 32.6295 13.6951C32.4858 13.538 32.4139 13.2926 32.4139 12.9588C32.4139 12.4482 32.5782 11.9573 32.9068 11.486C33.2559 11.0147 33.6974 10.6416 34.2314 10.3667C34.7859 10.0722 35.3506 9.92489 35.9256 9.92489C36.439 9.92489 36.9627 10.0329 37.4967 10.2489C38.0512 10.4453 38.7289 10.7398 39.5298 11.1325C40.187 11.4664 40.7517 11.7315 41.2241 11.9278C41.6964 12.1046 42.1277 12.1929 42.5179 12.1929C42.7848 12.1929 43.0005 12.1438 43.1648 12.0457C43.3496 11.9278 43.442 11.7904 43.442 11.6333C43.442 11.4566 43.3393 11.2307 43.1339 10.9558C43.0107 10.7987 42.9183 10.6613 42.8567 10.5434C42.7951 10.4256 42.7643 10.2882 42.7643 10.1311C42.7643 9.67943 43.0313 9.45361 43.5652 9.45361ZM25.2672 11.5155C25.1645 12.1438 25.1132 12.674 25.1132 13.106C25.1132 13.322 25.1337 13.6264 25.1748 14.0191C25.7293 13.5871 26.3043 13.1551 26.8998 12.7231C28.7687 11.3486 30.2268 10.2096 31.2741 9.30633C30.7607 8.26559 29.9187 7.74521 28.7481 7.74521C27.9472 7.74521 27.2284 8.10849 26.5918 8.83505C25.9757 9.54197 25.5342 10.4354 25.2672 11.5155Z" stroke="black" stroke-width="2" mask="url(#path-1-outside-1_14_33)"/>
<path d="M60.3627 10.3078C62.0878 10.5042 63.4535 11.054 64.4598 11.9573C65.4866 12.8606 66 13.9799 66 15.3152C66 16.3363 65.6919 17.2592 65.0759 18.0839C64.4598 18.9087 63.6075 19.5665 62.5191 20.0574C61.4306 20.5287 60.219 20.7644 58.8841 20.7644C58.3091 20.7644 57.6519 20.7349 56.9126 20.676C56.6251 20.6564 56.2657 20.6367 55.8344 20.6171C55.4237 20.5974 54.9616 20.5876 54.4482 20.5876L52.1995 20.6171C51.7887 20.6367 51.2342 20.6465 50.536 20.6465C50.4744 20.6465 50.4436 20.5876 50.4436 20.4698C50.4436 20.352 50.4744 20.2931 50.536 20.2931C51.1316 20.2931 51.5834 20.244 51.8914 20.1458C52.1995 20.028 52.4151 19.8316 52.5383 19.5567C52.6821 19.2622 52.7539 18.8301 52.7539 18.2607V4.62298C52.7539 3.79823 52.6102 3.25822 52.3227 3.00295C52.0352 2.72803 51.4499 2.59057 50.5668 2.59057C50.5257 2.59057 50.5052 2.53166 50.5052 2.41384C50.5052 2.29602 50.5257 2.23711 50.5668 2.23711L52.1995 2.26657C53.1441 2.30584 53.8937 2.32548 54.4482 2.32548C55.0232 2.32548 55.6188 2.29602 56.2349 2.23711C56.4403 2.21748 56.7483 2.19784 57.159 2.1782C57.5698 2.15857 57.9292 2.14875 58.2372 2.14875C60.106 2.14875 61.5538 2.47275 62.5807 3.12077C63.6075 3.76878 64.1209 4.71134 64.1209 5.94845C64.1209 6.89102 63.7923 7.74521 63.1352 8.51105C62.4985 9.27688 61.5744 9.8758 60.3627 10.3078ZM57.7751 2.79676C57.1796 2.79676 56.7688 2.93422 56.5429 3.20913C56.317 3.46441 56.2041 3.95533 56.2041 4.68188V10.2784L57.4363 10.3078C58.5042 10.3078 59.3256 9.92489 59.9007 9.15906C60.4757 8.39323 60.7632 7.41139 60.7632 6.21355C60.7632 5.09426 60.5065 4.24988 59.9931 3.68041C59.4797 3.09131 58.7403 2.79676 57.7751 2.79676ZM58.3604 20.028C61.0507 20.028 62.3958 18.6927 62.3958 16.0221C62.3958 14.5101 62.0159 13.3122 61.2561 12.4286C60.4962 11.5449 59.3462 11.1031 57.8059 11.1031C57.2104 11.1031 56.6764 11.1227 56.2041 11.162V18.2607C56.2041 18.9087 56.3376 19.3702 56.6045 19.6451C56.8715 19.9003 57.4568 20.028 58.3604 20.028Z" stroke="black" stroke-width="2" mask="url(#path-1-outside-1_14_33)"/>
</svg>
