<svg width="155" height="46" viewBox="0 0 155 46" fill="none" xmlns="http://www.w3.org/2000/svg">
<path d="M0 14C0 6.26801 6.26801 0 14 0H141C148.732 0 155 6.26801 155 14V32C155 39.732 148.732 46 141 46H14C6.26801 46 0 39.732 0 32V14Z" fill="#1B1A1A"/>
<path d="M29.68 21.08C29.3707 20.4293 28.9227 19.928 28.336 19.576C27.7493 19.2133 27.0667 19.032 26.288 19.032C25.5093 19.032 24.8053 19.2133 24.176 19.576C23.5573 19.928 23.0667 20.44 22.704 21.112C22.352 21.7733 22.176 22.5413 22.176 23.416C22.176 24.2907 22.352 25.0587 22.704 25.72C23.0667 26.3813 23.5573 26.8933 24.176 27.256C24.8053 27.608 25.5093 27.784 26.288 27.784C27.376 27.784 28.272 27.4587 28.976 26.808C29.68 26.1573 30.0907 25.2773 30.208 24.168H25.76V22.984H31.76V24.104C31.6747 25.0213 31.3867 25.864 30.896 26.632C30.4053 27.3893 29.76 27.992 28.96 28.44C28.16 28.8773 27.2693 29.096 26.288 29.096C25.2533 29.096 24.3093 28.856 23.456 28.376C22.6027 27.8853 21.9253 27.208 21.424 26.344C20.9333 25.48 20.688 24.504 20.688 23.416C20.688 22.328 20.9333 21.352 21.424 20.488C21.9253 19.6133 22.6027 18.936 23.456 18.456C24.3093 17.9653 25.2533 17.72 26.288 17.72C27.472 17.72 28.5173 18.0133 29.424 18.6C30.3413 19.1867 31.008 20.0133 31.424 21.08H29.68ZM42.0851 24.28C42.0851 24.5573 42.0691 24.8507 42.0371 25.16H35.0291C35.0825 26.024 35.3758 26.7013 35.9091 27.192C36.4531 27.672 37.1091 27.912 37.8771 27.912C38.5065 27.912 39.0291 27.768 39.4451 27.48C39.8718 27.1813 40.1705 26.7867 40.3411 26.296H41.9091C41.6745 27.1387 41.2051 27.8267 40.5011 28.36C39.7971 28.8827 38.9225 29.144 37.8771 29.144C37.0451 29.144 36.2985 28.9573 35.6371 28.584C34.9865 28.2107 34.4745 27.6827 34.1011 27C33.7278 26.3067 33.5411 25.5067 33.5411 24.6C33.5411 23.6933 33.7225 22.8987 34.0851 22.216C34.4478 21.5333 34.9545 21.0107 35.6051 20.648C36.2665 20.2747 37.0238 20.088 37.8771 20.088C38.7091 20.088 39.4451 20.2693 40.0851 20.632C40.7251 20.9947 41.2158 21.496 41.5571 22.136C41.9091 22.7653 42.0851 23.48 42.0851 24.28ZM40.5811 23.976C40.5811 23.4213 40.4585 22.9467 40.2131 22.552C39.9678 22.1467 39.6318 21.8427 39.2051 21.64C38.7891 21.4267 38.3251 21.32 37.8131 21.32C37.0771 21.32 36.4478 21.5547 35.9251 22.024C35.4131 22.4933 35.1198 23.144 35.0451 23.976H40.5811ZM46.183 21.432V26.6C46.183 27.0267 46.2737 27.3307 46.455 27.512C46.6363 27.6827 46.951 27.768 47.399 27.768H48.471V29H47.159C46.3483 29 45.7403 28.8133 45.335 28.44C44.9297 28.0667 44.727 27.4533 44.727 26.6V21.432H43.591V20.232H44.727V18.024H46.183V20.232H48.471V21.432H46.183ZM57.0767 21.432V26.6C57.0767 27.0267 57.1674 27.3307 57.3487 27.512C57.5301 27.6827 57.8447 27.768 58.2927 27.768H59.3647V29H58.0527C57.2421 29 56.6341 28.8133 56.2287 28.44C55.8234 28.0667 55.6207 27.4533 55.6207 26.6V21.432H54.4847V20.232H55.6207V18.024H57.0767V20.232H59.3647V21.432H57.0767ZM69.5289 24.28C69.5289 24.5573 69.5129 24.8507 69.4809 25.16H62.4729C62.5262 26.024 62.8195 26.7013 63.3529 27.192C63.8969 27.672 64.5529 27.912 65.3209 27.912C65.9502 27.912 66.4729 27.768 66.8889 27.48C67.3155 27.1813 67.6142 26.7867 67.7849 26.296H69.3529C69.1182 27.1387 68.6489 27.8267 67.9449 28.36C67.2409 28.8827 66.3662 29.144 65.3209 29.144C64.4889 29.144 63.7422 28.9573 63.0809 28.584C62.4302 28.2107 61.9182 27.6827 61.5449 27C61.1715 26.3067 60.9849 25.5067 60.9849 24.6C60.9849 23.6933 61.1662 22.8987 61.5289 22.216C61.8915 21.5333 62.3982 21.0107 63.0489 20.648C63.7102 20.2747 64.4675 20.088 65.3209 20.088C66.1529 20.088 66.8889 20.2693 67.5289 20.632C68.1689 20.9947 68.6595 21.496 69.0009 22.136C69.3529 22.7653 69.5289 23.48 69.5289 24.28ZM68.0249 23.976C68.0249 23.4213 67.9022 22.9467 67.6569 22.552C67.4115 22.1467 67.0755 21.8427 66.6489 21.64C66.2329 21.4267 65.7689 21.32 65.2569 21.32C64.5209 21.32 63.8915 21.5547 63.3689 22.024C62.8569 22.4933 62.5635 23.144 62.4889 23.976H68.0249ZM82.3948 20.072C83.0774 20.072 83.6854 20.216 84.2188 20.504C84.7521 20.7813 85.1734 21.2027 85.4828 21.768C85.7921 22.3333 85.9468 23.0213 85.9468 23.832V29H84.5068V24.04C84.5068 23.1653 84.2881 22.4987 83.8508 22.04C83.4241 21.5707 82.8428 21.336 82.1068 21.336C81.3494 21.336 80.7468 21.5813 80.2988 22.072C79.8508 22.552 79.6268 23.2507 79.6268 24.168V29H78.1868V24.04C78.1868 23.1653 77.9681 22.4987 77.5308 22.04C77.1041 21.5707 76.5228 21.336 75.7868 21.336C75.0294 21.336 74.4268 21.5813 73.9788 22.072C73.5308 22.552 73.3068 23.2507 73.3068 24.168V29H71.8508V20.232H73.3068V21.496C73.5948 21.0373 73.9788 20.6853 74.4588 20.44C74.9494 20.1947 75.4881 20.072 76.0748 20.072C76.8108 20.072 77.4614 20.2373 78.0268 20.568C78.5921 20.8987 79.0134 21.384 79.2908 22.024C79.5361 21.4053 79.9414 20.9253 80.5068 20.584C81.0721 20.2427 81.7014 20.072 82.3948 20.072ZM90.1911 21.848C90.4791 21.3467 90.9058 20.9307 91.4711 20.6C92.0471 20.2587 92.7138 20.088 93.4711 20.088C94.2498 20.088 94.9538 20.2747 95.5831 20.648C96.2231 21.0213 96.7245 21.5493 97.0871 22.232C97.4498 22.904 97.6311 23.688 97.6311 24.584C97.6311 25.4693 97.4498 26.2587 97.0871 26.952C96.7245 27.6453 96.2231 28.184 95.5831 28.568C94.9538 28.952 94.2498 29.144 93.4711 29.144C92.7245 29.144 92.0631 28.9787 91.4871 28.648C90.9218 28.3067 90.4898 27.8853 90.1911 27.384V33.16H88.7351V20.232H90.1911V21.848ZM96.1431 24.584C96.1431 23.9227 96.0098 23.3467 95.7431 22.856C95.4765 22.3653 95.1138 21.992 94.6551 21.736C94.2071 21.48 93.7111 21.352 93.1671 21.352C92.6338 21.352 92.1378 21.4853 91.6791 21.752C91.2311 22.008 90.8685 22.3867 90.5911 22.888C90.3245 23.3787 90.1911 23.9493 90.1911 24.6C90.1911 25.2613 90.3245 25.8427 90.5911 26.344C90.8685 26.8347 91.2311 27.2133 91.6791 27.48C92.1378 27.736 92.6338 27.864 93.1671 27.864C93.7111 27.864 94.2071 27.736 94.6551 27.48C95.1138 27.2133 95.4765 26.8347 95.7431 26.344C96.0098 25.8427 96.1431 25.256 96.1431 24.584ZM101.404 17.16V29H99.9476V17.16H101.404ZM103.741 24.584C103.741 23.688 103.922 22.904 104.285 22.232C104.648 21.5493 105.144 21.0213 105.773 20.648C106.413 20.2747 107.122 20.088 107.901 20.088C108.669 20.088 109.336 20.2533 109.901 20.584C110.466 20.9147 110.888 21.3307 111.165 21.832V20.232H112.637V29H111.165V27.368C110.877 27.88 110.445 28.3067 109.869 28.648C109.304 28.9787 108.642 29.144 107.885 29.144C107.106 29.144 106.402 28.952 105.773 28.568C105.144 28.184 104.648 27.6453 104.285 26.952C103.922 26.2587 103.741 25.4693 103.741 24.584ZM111.165 24.6C111.165 23.9387 111.032 23.3627 110.765 22.872C110.498 22.3813 110.136 22.008 109.677 21.752C109.229 21.4853 108.733 21.352 108.189 21.352C107.645 21.352 107.149 21.48 106.701 21.736C106.253 21.992 105.896 22.3653 105.629 22.856C105.362 23.3467 105.229 23.9227 105.229 24.584C105.229 25.256 105.362 25.8427 105.629 26.344C105.896 26.8347 106.253 27.2133 106.701 27.48C107.149 27.736 107.645 27.864 108.189 27.864C108.733 27.864 109.229 27.736 109.677 27.48C110.136 27.2133 110.498 26.8347 110.765 26.344C111.032 25.8427 111.165 25.2613 111.165 24.6ZM117.274 21.432V26.6C117.274 27.0267 117.364 27.3307 117.546 27.512C117.727 27.6827 118.042 27.768 118.49 27.768H119.562V29H118.25C117.439 29 116.831 28.8133 116.426 28.44C116.02 28.0667 115.818 27.4533 115.818 26.6V21.432H114.682V20.232H115.818V18.024H117.274V20.232H119.562V21.432H117.274ZM129.726 24.28C129.726 24.5573 129.71 24.8507 129.678 25.16H122.67C122.723 26.024 123.016 26.7013 123.55 27.192C124.094 27.672 124.75 27.912 125.518 27.912C126.147 27.912 126.67 27.768 127.086 27.48C127.512 27.1813 127.811 26.7867 127.982 26.296H129.55C129.315 27.1387 128.846 27.8267 128.142 28.36C127.438 28.8827 126.563 29.144 125.518 29.144C124.686 29.144 123.939 28.9573 123.278 28.584C122.627 28.2107 122.115 27.6827 121.742 27C121.368 26.3067 121.182 25.5067 121.182 24.6C121.182 23.6933 121.363 22.8987 121.726 22.216C122.088 21.5333 122.595 21.0107 123.246 20.648C123.907 20.2747 124.664 20.088 125.518 20.088C126.35 20.088 127.086 20.2693 127.726 20.632C128.366 20.9947 128.856 21.496 129.198 22.136C129.55 22.7653 129.726 23.48 129.726 24.28ZM128.222 23.976C128.222 23.4213 128.099 22.9467 127.854 22.552C127.608 22.1467 127.272 21.8427 126.846 21.64C126.43 21.4267 125.966 21.32 125.454 21.32C124.718 21.32 124.088 21.5547 123.566 22.024C123.054 22.4933 122.76 23.144 122.686 23.976H128.222Z" fill="white"/>
</svg>
