<svg width="88" height="10" viewBox="0 0 88 10" fill="none" xmlns="http://www.w3.org/2000/svg">
<path d="M5.48438 7.0332C5.48438 6.81738 5.45052 6.62695 5.38281 6.46191C5.31934 6.29264 5.20508 6.1403 5.04004 6.00488C4.87923 5.86947 4.65495 5.7404 4.36719 5.61768C4.08366 5.49495 3.72396 5.37012 3.28809 5.24316C2.83105 5.10775 2.41846 4.95752 2.05029 4.79248C1.68213 4.62321 1.36686 4.43066 1.10449 4.21484C0.842122 3.99902 0.641113 3.75146 0.501465 3.47217C0.361816 3.19287 0.291992 2.87337 0.291992 2.51367C0.291992 2.15397 0.366048 1.82178 0.51416 1.51709C0.662272 1.2124 0.873861 0.947917 1.14893 0.723633C1.42822 0.495117 1.76042 0.317383 2.14551 0.19043C2.5306 0.0634766 2.96012 0 3.43408 0C4.12809 0 4.71631 0.133301 5.19873 0.399902C5.68538 0.662272 6.05566 1.00716 6.30957 1.43457C6.56348 1.85775 6.69043 2.31055 6.69043 2.79297H5.47168C5.47168 2.44596 5.39762 2.13916 5.24951 1.87256C5.1014 1.60173 4.87712 1.39014 4.57666 1.23779C4.2762 1.08122 3.89535 1.00293 3.43408 1.00293C2.99821 1.00293 2.63851 1.06852 2.35498 1.19971C2.07145 1.33089 1.85986 1.50863 1.72021 1.73291C1.5848 1.95719 1.51709 2.21322 1.51709 2.50098C1.51709 2.69564 1.55729 2.87337 1.6377 3.03418C1.72233 3.19076 1.8514 3.33675 2.0249 3.47217C2.20264 3.60758 2.42692 3.73242 2.69775 3.84668C2.97282 3.96094 3.30078 4.07096 3.68164 4.17676C4.20638 4.32487 4.65918 4.48991 5.04004 4.67188C5.4209 4.85384 5.73405 5.05908 5.97949 5.2876C6.22917 5.51188 6.41325 5.7679 6.53174 6.05566C6.65446 6.33919 6.71582 6.66081 6.71582 7.02051C6.71582 7.39714 6.63965 7.73779 6.4873 8.04248C6.33496 8.34717 6.11702 8.60742 5.8335 8.82324C5.54997 9.03906 5.20931 9.20622 4.81152 9.32471C4.41797 9.43896 3.97786 9.49609 3.49121 9.49609C3.0638 9.49609 2.64274 9.43685 2.22803 9.31836C1.81755 9.19987 1.44303 9.02214 1.10449 8.78516C0.770182 8.54818 0.501465 8.25618 0.29834 7.90918C0.0994466 7.55794 0 7.15169 0 6.69043H1.21875C1.21875 7.00781 1.28011 7.28076 1.40283 7.50928C1.52555 7.73356 1.69271 7.91976 1.9043 8.06787C2.12012 8.21598 2.36344 8.32601 2.63428 8.39795C2.90934 8.46566 3.19499 8.49951 3.49121 8.49951C3.91862 8.49951 4.28044 8.44027 4.57666 8.32178C4.87288 8.20329 5.09717 8.03402 5.24951 7.81396C5.40609 7.59391 5.48438 7.33366 5.48438 7.0332ZM9.59131 0.126953V9.36914H8.36621V0.126953H9.59131ZM12.2065 0.126953H13.3936L16.4214 7.66162L19.4429 0.126953H20.6362L16.8784 9.36914H15.9517L12.2065 0.126953ZM11.8193 0.126953H12.8667L13.0381 5.76367V9.36914H11.8193V0.126953ZM19.9697 0.126953H21.0171V9.36914H19.7983V5.76367L19.9697 0.126953ZM26.5776 5.74463H24.1084V4.74805H26.5776C27.0558 4.74805 27.443 4.67188 27.7393 4.51953C28.0355 4.36719 28.2513 4.1556 28.3867 3.88477C28.5264 3.61393 28.5962 3.30501 28.5962 2.95801C28.5962 2.64062 28.5264 2.34229 28.3867 2.06299C28.2513 1.78369 28.0355 1.55941 27.7393 1.39014C27.443 1.21663 27.0558 1.12988 26.5776 1.12988H24.394V9.36914H23.1689V0.126953H26.5776C27.2759 0.126953 27.8662 0.247559 28.3486 0.48877C28.8311 0.72998 29.1971 1.06429 29.4468 1.4917C29.6965 1.91488 29.8213 2.39941 29.8213 2.94531C29.8213 3.53776 29.6965 4.04346 29.4468 4.4624C29.1971 4.88135 28.8311 5.20085 28.3486 5.4209C27.8662 5.63672 27.2759 5.74463 26.5776 5.74463ZM36.9751 8.37256V9.36914H32.354V8.37256H36.9751ZM32.5952 0.126953V9.36914H31.3701V0.126953H32.5952ZM44.2495 8.37256V9.36914H39.3555V8.37256H44.2495ZM39.603 0.126953V9.36914H38.3779V0.126953H39.603ZM43.6021 4.10059V5.09717H39.3555V4.10059H43.6021ZM44.186 0.126953V1.12988H39.3555V0.126953H44.186ZM68.1865 8.4043V9.36914H62.1372V8.5249L65.165 5.1543C65.5374 4.73958 65.8252 4.38835 66.0283 4.10059C66.2357 3.80859 66.3796 3.54834 66.46 3.31982C66.5446 3.08708 66.5869 2.8501 66.5869 2.60889C66.5869 2.3042 66.5234 2.02913 66.3965 1.78369C66.2738 1.53402 66.0918 1.33512 65.8506 1.18701C65.6094 1.0389 65.3174 0.964844 64.9746 0.964844C64.5641 0.964844 64.2214 1.04525 63.9463 1.20605C63.6755 1.36263 63.4723 1.58268 63.3369 1.86621C63.2015 2.14974 63.1338 2.47559 63.1338 2.84375H61.9595C61.9595 2.32324 62.0737 1.84717 62.3022 1.41553C62.5308 0.983887 62.8693 0.641113 63.3179 0.387207C63.7664 0.129069 64.3187 0 64.9746 0C65.5586 0 66.0579 0.103678 66.4727 0.311035C66.8874 0.51416 67.2048 0.801921 67.4248 1.17432C67.6491 1.54248 67.7612 1.97412 67.7612 2.46924C67.7612 2.74007 67.7147 3.01514 67.6216 3.29443C67.5327 3.5695 67.4079 3.84456 67.2471 4.11963C67.0905 4.39469 66.9064 4.66553 66.6948 4.93213C66.4875 5.19873 66.2653 5.4611 66.0283 5.71924L63.5527 8.4043H68.1865ZM75.2451 4.01172V5.4209C75.2451 6.17839 75.1774 6.81738 75.042 7.33789C74.9066 7.8584 74.7119 8.27734 74.458 8.59473C74.2041 8.91211 73.8973 9.14274 73.5376 9.28662C73.1821 9.42627 72.7801 9.49609 72.3315 9.49609C71.9761 9.49609 71.6481 9.45166 71.3477 9.36279C71.0472 9.27393 70.7764 9.13216 70.5352 8.9375C70.2982 8.73861 70.0951 8.48047 69.9258 8.16309C69.7565 7.8457 69.6274 7.46061 69.5386 7.00781C69.4497 6.55501 69.4053 6.02604 69.4053 5.4209V4.01172C69.4053 3.25423 69.473 2.61947 69.6084 2.10742C69.748 1.59538 69.9448 1.1849 70.1987 0.875977C70.4526 0.562826 70.7573 0.338542 71.1128 0.203125C71.4725 0.0677083 71.8745 0 72.3188 0C72.6785 0 73.0086 0.0444336 73.3091 0.133301C73.6138 0.217936 73.8846 0.355469 74.1216 0.545898C74.3586 0.732096 74.5596 0.981771 74.7246 1.29492C74.8939 1.60384 75.0229 1.98258 75.1118 2.43115C75.2007 2.87972 75.2451 3.40658 75.2451 4.01172ZM74.0645 5.61133V3.81494C74.0645 3.40023 74.0391 3.0363 73.9883 2.72314C73.9417 2.40576 73.8719 2.13493 73.7788 1.91064C73.6857 1.68636 73.5672 1.50439 73.4233 1.36475C73.2837 1.2251 73.1208 1.12354 72.9346 1.06006C72.7526 0.99235 72.5474 0.958496 72.3188 0.958496C72.0396 0.958496 71.792 1.01139 71.5762 1.11719C71.3604 1.21875 71.1784 1.38167 71.0303 1.60596C70.8864 1.83024 70.7764 2.12435 70.7002 2.48828C70.624 2.85221 70.5859 3.29443 70.5859 3.81494V5.61133C70.5859 6.02604 70.6092 6.39209 70.6558 6.70947C70.7065 7.02686 70.7806 7.30192 70.8779 7.53467C70.9753 7.76318 71.0938 7.9515 71.2334 8.09961C71.373 8.24772 71.5339 8.35775 71.7158 8.42969C71.902 8.4974 72.1073 8.53125 72.3315 8.53125C72.6193 8.53125 72.8711 8.47624 73.0869 8.36621C73.3027 8.25618 73.4826 8.0848 73.6265 7.85205C73.7746 7.61507 73.8846 7.3125 73.9565 6.94434C74.0285 6.57194 74.0645 6.1276 74.0645 5.61133ZM82.8115 8.4043V9.36914H76.7622V8.5249L79.79 5.1543C80.1624 4.73958 80.4502 4.38835 80.6533 4.10059C80.8607 3.80859 81.0046 3.54834 81.085 3.31982C81.1696 3.08708 81.2119 2.8501 81.2119 2.60889C81.2119 2.3042 81.1484 2.02913 81.0215 1.78369C80.8988 1.53402 80.7168 1.33512 80.4756 1.18701C80.2344 1.0389 79.9424 0.964844 79.5996 0.964844C79.1891 0.964844 78.8464 1.04525 78.5713 1.20605C78.3005 1.36263 78.0973 1.58268 77.9619 1.86621C77.8265 2.14974 77.7588 2.47559 77.7588 2.84375H76.5845C76.5845 2.32324 76.6987 1.84717 76.9272 1.41553C77.1558 0.983887 77.4943 0.641113 77.9429 0.387207C78.3914 0.129069 78.9437 0 79.5996 0C80.1836 0 80.6829 0.103678 81.0977 0.311035C81.5124 0.51416 81.8298 0.801921 82.0498 1.17432C82.2741 1.54248 82.3862 1.97412 82.3862 2.46924C82.3862 2.74007 82.3397 3.01514 82.2466 3.29443C82.1577 3.5695 82.0329 3.84456 81.8721 4.11963C81.7155 4.39469 81.5314 4.66553 81.3198 4.93213C81.1125 5.19873 80.8903 5.4611 80.6533 5.71924L78.1777 8.4043H82.8115ZM87.9277 0.0761719V9.36914H86.7534V1.54248L84.3857 2.40576V1.3457L87.7437 0.0761719H87.9277Z" fill="#4C5866"/>
<path d="M53.168 5.21143H51.7842L51.7715 4.39893H53.0601C53.2378 4.39469 53.4028 4.36296 53.5552 4.30371C53.7118 4.24447 53.8366 4.15983 53.9297 4.0498C54.027 3.93555 54.0757 3.7959 54.0757 3.63086C54.0757 3.41927 54.0397 3.25212 53.9678 3.12939C53.8958 3.00667 53.7752 2.91781 53.606 2.86279C53.4409 2.80778 53.2145 2.78027 52.9268 2.78027H52.0635V7.35693H51.1685V1.97412H52.9268C53.3457 1.97412 53.7075 2.03337 54.0122 2.15186C54.3169 2.27035 54.5518 2.4502 54.7168 2.69141C54.8818 2.92839 54.9644 3.22884 54.9644 3.59277C54.9644 3.82129 54.9115 4.02653 54.8057 4.2085C54.6999 4.39046 54.5454 4.54704 54.3423 4.67822C54.1392 4.80941 53.8916 4.9152 53.5996 4.99561C53.5869 4.99561 53.5721 5.01042 53.5552 5.04004C53.5425 5.06543 53.5298 5.07812 53.5171 5.07812C53.4451 5.12044 53.3986 5.15218 53.3774 5.17334C53.3605 5.19027 53.3415 5.20085 53.3203 5.20508C53.3034 5.20931 53.2526 5.21143 53.168 5.21143ZM53.1045 5.21143L53.2314 4.64014C53.8874 4.64014 54.3338 4.77979 54.5708 5.05908C54.812 5.33415 54.9326 5.68327 54.9326 6.10645V6.44922C54.9326 6.60579 54.9411 6.75602 54.958 6.8999C54.9749 7.03955 55.0024 7.15804 55.0405 7.25537V7.35693H54.1201C54.0778 7.24691 54.0524 7.09033 54.0439 6.88721C54.0397 6.68408 54.0376 6.53597 54.0376 6.44287V6.11279C54.0376 5.80387 53.9657 5.57747 53.8218 5.43359C53.6821 5.28548 53.443 5.21143 53.1045 5.21143ZM49.2261 4.7417C49.2261 5.30452 49.3234 5.82926 49.5181 6.31592C49.7127 6.80257 49.9836 7.22786 50.3306 7.5918C50.6776 7.95573 51.0796 8.23926 51.5366 8.44238C51.9937 8.64551 52.4824 8.74707 53.0029 8.74707C53.5234 8.74707 54.0101 8.64551 54.4629 8.44238C54.9199 8.23926 55.3198 7.95573 55.6626 7.5918C56.0096 7.22786 56.2804 6.80257 56.4751 6.31592C56.6698 5.82926 56.7671 5.30452 56.7671 4.7417C56.7671 4.17464 56.6698 3.6499 56.4751 3.16748C56.2804 2.68506 56.0096 2.264 55.6626 1.9043C55.3198 1.54036 54.9199 1.25895 54.4629 1.06006C54.0101 0.856934 53.5234 0.755371 53.0029 0.755371C52.4824 0.755371 51.9937 0.856934 51.5366 1.06006C51.0796 1.25895 50.6776 1.54036 50.3306 1.9043C49.9836 2.264 49.7127 2.68506 49.5181 3.16748C49.3234 3.6499 49.2261 4.17464 49.2261 4.7417ZM48.4961 4.7417C48.4961 4.06885 48.6125 3.44466 48.8452 2.86914C49.078 2.29362 49.4017 1.79215 49.8164 1.36475C50.2311 0.933105 50.7093 0.598796 51.251 0.361816C51.7969 0.120605 52.3809 0 53.0029 0C53.625 0 54.2069 0.120605 54.7485 0.361816C55.2944 0.598796 55.7726 0.933105 56.1831 1.36475C56.5978 1.79215 56.9215 2.29362 57.1543 2.86914C57.387 3.44466 57.5034 4.06885 57.5034 4.7417C57.5034 5.41455 57.387 6.03874 57.1543 6.61426C56.9215 7.18978 56.5978 7.69548 56.1831 8.13135C55.7726 8.56299 55.2944 8.89941 54.7485 9.14062C54.2069 9.38184 53.625 9.50244 53.0029 9.50244C52.3809 9.50244 51.7969 9.38184 51.251 9.14062C50.7093 8.89941 50.2311 8.56299 49.8164 8.13135C49.4017 7.69548 49.078 7.18978 48.8452 6.61426C48.6125 6.03874 48.4961 5.41455 48.4961 4.7417Z" fill="#BCBCBC"/>
</svg>
